<?xml version="1.0" encoding="utf-8" standalone="no"?>
<!DOCTYPE svg PUBLIC "-//W3C//DTD SVG 1.1//EN"
  "http://www.w3.org/Graphics/SVG/1.1/DTD/svg11.dtd">
<svg xmlns:xlink="http://www.w3.org/1999/xlink" width="412.54404pt" height="314.477158pt" viewBox="0 0 412.54404 314.477158" xmlns="http://www.w3.org/2000/svg" version="1.1">
 <metadata>
  <rdf:RDF xmlns:dc="http://purl.org/dc/elements/1.1/" xmlns:cc="http://creativecommons.org/ns#" xmlns:rdf="http://www.w3.org/1999/02/22-rdf-syntax-ns#">
   <cc:Work>
    <dc:type rdf:resource="http://purl.org/dc/dcmitype/StillImage"/>
    <dc:date>2024-01-10T17:05:15.645939</dc:date>
    <dc:format>image/svg+xml</dc:format>
    <dc:creator>
     <cc:Agent>
      <dc:title>Matplotlib v3.8.2, https://matplotlib.org/</dc:title>
     </cc:Agent>
    </dc:creator>
   </cc:Work>
  </rdf:RDF>
 </metadata>
 <defs>
  <style type="text/css">*{stroke-linejoin: round; stroke-linecap: butt}</style>
 </defs>
 <g id="figure_1">
  <g id="patch_1">
   <path d="M 0 314.477158 
L 412.54404 314.477158 
L 412.54404 0 
L 0 0 
z
" style="fill: #ffc0cb"/>
  </g>
  <g id="axes_1">
   <g id="patch_2">
    <path d="M 48.22404 257.326125 
L 405.34404 257.326125 
L 405.34404 22.318125 
L 48.22404 22.318125 
z
" style="fill: #ffffff"/>
   </g>
   <g id="matplotlib.axis_1">
    <g id="xtick_1">
     <g id="line2d_1">
      <defs>
       <path id="m34eb748b5e" d="M 0 0 
L 0 3.5 
" style="stroke: #000000; stroke-width: 0.8"/>
      </defs>
      <g>
       <use xlink:href="#m34eb748b5e" x="48.22404" y="257.326125" style="stroke: #000000; stroke-width: 0.8"/>
      </g>
     </g>
     <g id="text_1">
      <!-- 2007-01 -->
      <g transform="translate(10.999219 291.797971) rotate(-30) scale(0.1 -0.1)">
       <defs>
        <path id="DejaVuSans-32" d="M 1228 531 
L 3431 531 
L 3431 0 
L 469 0 
L 469 531 
Q 828 903 1448 1529 
Q 2069 2156 2228 2338 
Q 2531 2678 2651 2914 
Q 2772 3150 2772 3378 
Q 2772 3750 2511 3984 
Q 2250 4219 1831 4219 
Q 1534 4219 1204 4116 
Q 875 4013 500 3803 
L 500 4441 
Q 881 4594 1212 4672 
Q 1544 4750 1819 4750 
Q 2544 4750 2975 4387 
Q 3406 4025 3406 3419 
Q 3406 3131 3298 2873 
Q 3191 2616 2906 2266 
Q 2828 2175 2409 1742 
Q 1991 1309 1228 531 
z
" transform="scale(0.015625)"/>
        <path id="DejaVuSans-30" d="M 2034 4250 
Q 1547 4250 1301 3770 
Q 1056 3291 1056 2328 
Q 1056 1369 1301 889 
Q 1547 409 2034 409 
Q 2525 409 2770 889 
Q 3016 1369 3016 2328 
Q 3016 3291 2770 3770 
Q 2525 4250 2034 4250 
z
M 2034 4750 
Q 2819 4750 3233 4129 
Q 3647 3509 3647 2328 
Q 3647 1150 3233 529 
Q 2819 -91 2034 -91 
Q 1250 -91 836 529 
Q 422 1150 422 2328 
Q 422 3509 836 4129 
Q 1250 4750 2034 4750 
z
" transform="scale(0.015625)"/>
        <path id="DejaVuSans-37" d="M 525 4666 
L 3525 4666 
L 3525 4397 
L 1831 0 
L 1172 0 
L 2766 4134 
L 525 4134 
L 525 4666 
z
" transform="scale(0.015625)"/>
        <path id="DejaVuSans-2d" d="M 313 2009 
L 1997 2009 
L 1997 1497 
L 313 1497 
L 313 2009 
z
" transform="scale(0.015625)"/>
        <path id="DejaVuSans-31" d="M 794 531 
L 1825 531 
L 1825 4091 
L 703 3866 
L 703 4441 
L 1819 4666 
L 2450 4666 
L 2450 531 
L 3481 531 
L 3481 0 
L 794 0 
L 794 531 
z
" transform="scale(0.015625)"/>
       </defs>
       <use xlink:href="#DejaVuSans-32"/>
       <use xlink:href="#DejaVuSans-30" x="63.623047"/>
       <use xlink:href="#DejaVuSans-30" x="127.246094"/>
       <use xlink:href="#DejaVuSans-37" x="190.869141"/>
       <use xlink:href="#DejaVuSans-2d" x="254.492188"/>
       <use xlink:href="#DejaVuSans-30" x="290.576172"/>
       <use xlink:href="#DejaVuSans-31" x="354.199219"/>
      </g>
     </g>
    </g>
    <g id="xtick_2">
     <g id="line2d_2">
      <g>
       <use xlink:href="#m34eb748b5e" x="92.466832" y="257.326125" style="stroke: #000000; stroke-width: 0.8"/>
      </g>
     </g>
     <g id="text_2">
      <!-- 2007-07 -->
      <g transform="translate(55.242011 291.797971) rotate(-30) scale(0.1 -0.1)">
       <use xlink:href="#DejaVuSans-32"/>
       <use xlink:href="#DejaVuSans-30" x="63.623047"/>
       <use xlink:href="#DejaVuSans-30" x="127.246094"/>
       <use xlink:href="#DejaVuSans-37" x="190.869141"/>
       <use xlink:href="#DejaVuSans-2d" x="254.492188"/>
       <use xlink:href="#DejaVuSans-30" x="290.576172"/>
       <use xlink:href="#DejaVuSans-37" x="354.199219"/>
      </g>
     </g>
    </g>
    <g id="xtick_3">
     <g id="line2d_3">
      <g>
       <use xlink:href="#m34eb748b5e" x="137.442931" y="257.326125" style="stroke: #000000; stroke-width: 0.8"/>
      </g>
     </g>
     <g id="text_3">
      <!-- 2008-01 -->
      <g transform="translate(100.21811 291.797971) rotate(-30) scale(0.1 -0.1)">
       <defs>
        <path id="DejaVuSans-38" d="M 2034 2216 
Q 1584 2216 1326 1975 
Q 1069 1734 1069 1313 
Q 1069 891 1326 650 
Q 1584 409 2034 409 
Q 2484 409 2743 651 
Q 3003 894 3003 1313 
Q 3003 1734 2745 1975 
Q 2488 2216 2034 2216 
z
M 1403 2484 
Q 997 2584 770 2862 
Q 544 3141 544 3541 
Q 544 4100 942 4425 
Q 1341 4750 2034 4750 
Q 2731 4750 3128 4425 
Q 3525 4100 3525 3541 
Q 3525 3141 3298 2862 
Q 3072 2584 2669 2484 
Q 3125 2378 3379 2068 
Q 3634 1759 3634 1313 
Q 3634 634 3220 271 
Q 2806 -91 2034 -91 
Q 1263 -91 848 271 
Q 434 634 434 1313 
Q 434 1759 690 2068 
Q 947 2378 1403 2484 
z
M 1172 3481 
Q 1172 3119 1398 2916 
Q 1625 2713 2034 2713 
Q 2441 2713 2670 2916 
Q 2900 3119 2900 3481 
Q 2900 3844 2670 4047 
Q 2441 4250 2034 4250 
Q 1625 4250 1398 4047 
Q 1172 3844 1172 3481 
z
" transform="scale(0.015625)"/>
       </defs>
       <use xlink:href="#DejaVuSans-32"/>
       <use xlink:href="#DejaVuSans-30" x="63.623047"/>
       <use xlink:href="#DejaVuSans-30" x="127.246094"/>
       <use xlink:href="#DejaVuSans-38" x="190.869141"/>
       <use xlink:href="#DejaVuSans-2d" x="254.492188"/>
       <use xlink:href="#DejaVuSans-30" x="290.576172"/>
       <use xlink:href="#DejaVuSans-31" x="354.199219"/>
      </g>
     </g>
    </g>
    <g id="xtick_4">
     <g id="line2d_4">
      <g>
       <use xlink:href="#m34eb748b5e" x="181.930159" y="257.326125" style="stroke: #000000; stroke-width: 0.8"/>
      </g>
     </g>
     <g id="text_4">
      <!-- 2008-07 -->
      <g transform="translate(144.705338 291.797971) rotate(-30) scale(0.1 -0.1)">
       <use xlink:href="#DejaVuSans-32"/>
       <use xlink:href="#DejaVuSans-30" x="63.623047"/>
       <use xlink:href="#DejaVuSans-30" x="127.246094"/>
       <use xlink:href="#DejaVuSans-38" x="190.869141"/>
       <use xlink:href="#DejaVuSans-2d" x="254.492188"/>
       <use xlink:href="#DejaVuSans-30" x="290.576172"/>
       <use xlink:href="#DejaVuSans-37" x="354.199219"/>
      </g>
     </g>
    </g>
    <g id="xtick_5">
     <g id="line2d_5">
      <g>
       <use xlink:href="#m34eb748b5e" x="226.906257" y="257.326125" style="stroke: #000000; stroke-width: 0.8"/>
      </g>
     </g>
     <g id="text_5">
      <!-- 2009-01 -->
      <g transform="translate(189.681436 291.797971) rotate(-30) scale(0.1 -0.1)">
       <defs>
        <path id="DejaVuSans-39" d="M 703 97 
L 703 672 
Q 941 559 1184 500 
Q 1428 441 1663 441 
Q 2288 441 2617 861 
Q 2947 1281 2994 2138 
Q 2813 1869 2534 1725 
Q 2256 1581 1919 1581 
Q 1219 1581 811 2004 
Q 403 2428 403 3163 
Q 403 3881 828 4315 
Q 1253 4750 1959 4750 
Q 2769 4750 3195 4129 
Q 3622 3509 3622 2328 
Q 3622 1225 3098 567 
Q 2575 -91 1691 -91 
Q 1453 -91 1209 -44 
Q 966 3 703 97 
z
M 1959 2075 
Q 2384 2075 2632 2365 
Q 2881 2656 2881 3163 
Q 2881 3666 2632 3958 
Q 2384 4250 1959 4250 
Q 1534 4250 1286 3958 
Q 1038 3666 1038 3163 
Q 1038 2656 1286 2365 
Q 1534 2075 1959 2075 
z
" transform="scale(0.015625)"/>
       </defs>
       <use xlink:href="#DejaVuSans-32"/>
       <use xlink:href="#DejaVuSans-30" x="63.623047"/>
       <use xlink:href="#DejaVuSans-30" x="127.246094"/>
       <use xlink:href="#DejaVuSans-39" x="190.869141"/>
       <use xlink:href="#DejaVuSans-2d" x="254.492188"/>
       <use xlink:href="#DejaVuSans-30" x="290.576172"/>
       <use xlink:href="#DejaVuSans-31" x="354.199219"/>
      </g>
     </g>
    </g>
    <g id="xtick_6">
     <g id="line2d_6">
      <g>
       <use xlink:href="#m34eb748b5e" x="271.14905" y="257.326125" style="stroke: #000000; stroke-width: 0.8"/>
      </g>
     </g>
     <g id="text_6">
      <!-- 2009-07 -->
      <g transform="translate(233.924229 291.797971) rotate(-30) scale(0.1 -0.1)">
       <use xlink:href="#DejaVuSans-32"/>
       <use xlink:href="#DejaVuSans-30" x="63.623047"/>
       <use xlink:href="#DejaVuSans-30" x="127.246094"/>
       <use xlink:href="#DejaVuSans-39" x="190.869141"/>
       <use xlink:href="#DejaVuSans-2d" x="254.492188"/>
       <use xlink:href="#DejaVuSans-30" x="290.576172"/>
       <use xlink:href="#DejaVuSans-37" x="354.199219"/>
      </g>
     </g>
    </g>
    <g id="xtick_7">
     <g id="line2d_7">
      <g>
       <use xlink:href="#m34eb748b5e" x="316.125148" y="257.326125" style="stroke: #000000; stroke-width: 0.8"/>
      </g>
     </g>
     <g id="text_7">
      <!-- 2010-01 -->
      <g transform="translate(278.900328 291.797971) rotate(-30) scale(0.1 -0.1)">
       <use xlink:href="#DejaVuSans-32"/>
       <use xlink:href="#DejaVuSans-30" x="63.623047"/>
       <use xlink:href="#DejaVuSans-31" x="127.246094"/>
       <use xlink:href="#DejaVuSans-30" x="190.869141"/>
       <use xlink:href="#DejaVuSans-2d" x="254.492188"/>
       <use xlink:href="#DejaVuSans-30" x="290.576172"/>
       <use xlink:href="#DejaVuSans-31" x="354.199219"/>
      </g>
     </g>
    </g>
    <g id="xtick_8">
     <g id="line2d_8">
      <g>
       <use xlink:href="#m34eb748b5e" x="360.367941" y="257.326125" style="stroke: #000000; stroke-width: 0.8"/>
      </g>
     </g>
     <g id="text_8">
      <!-- 2010-07 -->
      <g transform="translate(323.14312 291.797971) rotate(-30) scale(0.1 -0.1)">
       <use xlink:href="#DejaVuSans-32"/>
       <use xlink:href="#DejaVuSans-30" x="63.623047"/>
       <use xlink:href="#DejaVuSans-31" x="127.246094"/>
       <use xlink:href="#DejaVuSans-30" x="190.869141"/>
       <use xlink:href="#DejaVuSans-2d" x="254.492188"/>
       <use xlink:href="#DejaVuSans-30" x="290.576172"/>
       <use xlink:href="#DejaVuSans-37" x="354.199219"/>
      </g>
     </g>
    </g>
    <g id="xtick_9">
     <g id="line2d_9">
      <g>
       <use xlink:href="#m34eb748b5e" x="405.34404" y="257.326125" style="stroke: #000000; stroke-width: 0.8"/>
      </g>
     </g>
     <g id="text_9">
      <!-- 2011-01 -->
      <g transform="translate(368.119219 291.797971) rotate(-30) scale(0.1 -0.1)">
       <use xlink:href="#DejaVuSans-32"/>
       <use xlink:href="#DejaVuSans-30" x="63.623047"/>
       <use xlink:href="#DejaVuSans-31" x="127.246094"/>
       <use xlink:href="#DejaVuSans-31" x="190.869141"/>
       <use xlink:href="#DejaVuSans-2d" x="254.492188"/>
       <use xlink:href="#DejaVuSans-30" x="290.576172"/>
       <use xlink:href="#DejaVuSans-31" x="354.199219"/>
      </g>
     </g>
    </g>
    <g id="text_10">
     <!-- date in financial crirsis -->
     <g transform="translate(170.194196 305.197471) scale(0.1 -0.1)">
      <defs>
       <path id="DejaVuSans-64" d="M 2906 2969 
L 2906 4863 
L 3481 4863 
L 3481 0 
L 2906 0 
L 2906 525 
Q 2725 213 2448 61 
Q 2172 -91 1784 -91 
Q 1150 -91 751 415 
Q 353 922 353 1747 
Q 353 2572 751 3078 
Q 1150 3584 1784 3584 
Q 2172 3584 2448 3432 
Q 2725 3281 2906 2969 
z
M 947 1747 
Q 947 1113 1208 752 
Q 1469 391 1925 391 
Q 2381 391 2643 752 
Q 2906 1113 2906 1747 
Q 2906 2381 2643 2742 
Q 2381 3103 1925 3103 
Q 1469 3103 1208 2742 
Q 947 2381 947 1747 
z
" transform="scale(0.015625)"/>
       <path id="DejaVuSans-61" d="M 2194 1759 
Q 1497 1759 1228 1600 
Q 959 1441 959 1056 
Q 959 750 1161 570 
Q 1363 391 1709 391 
Q 2188 391 2477 730 
Q 2766 1069 2766 1631 
L 2766 1759 
L 2194 1759 
z
M 3341 1997 
L 3341 0 
L 2766 0 
L 2766 531 
Q 2569 213 2275 61 
Q 1981 -91 1556 -91 
Q 1019 -91 701 211 
Q 384 513 384 1019 
Q 384 1609 779 1909 
Q 1175 2209 1959 2209 
L 2766 2209 
L 2766 2266 
Q 2766 2663 2505 2880 
Q 2244 3097 1772 3097 
Q 1472 3097 1187 3025 
Q 903 2953 641 2809 
L 641 3341 
Q 956 3463 1253 3523 
Q 1550 3584 1831 3584 
Q 2591 3584 2966 3190 
Q 3341 2797 3341 1997 
z
" transform="scale(0.015625)"/>
       <path id="DejaVuSans-74" d="M 1172 4494 
L 1172 3500 
L 2356 3500 
L 2356 3053 
L 1172 3053 
L 1172 1153 
Q 1172 725 1289 603 
Q 1406 481 1766 481 
L 2356 481 
L 2356 0 
L 1766 0 
Q 1100 0 847 248 
Q 594 497 594 1153 
L 594 3053 
L 172 3053 
L 172 3500 
L 594 3500 
L 594 4494 
L 1172 4494 
z
" transform="scale(0.015625)"/>
       <path id="DejaVuSans-65" d="M 3597 1894 
L 3597 1613 
L 953 1613 
Q 991 1019 1311 708 
Q 1631 397 2203 397 
Q 2534 397 2845 478 
Q 3156 559 3463 722 
L 3463 178 
Q 3153 47 2828 -22 
Q 2503 -91 2169 -91 
Q 1331 -91 842 396 
Q 353 884 353 1716 
Q 353 2575 817 3079 
Q 1281 3584 2069 3584 
Q 2775 3584 3186 3129 
Q 3597 2675 3597 1894 
z
M 3022 2063 
Q 3016 2534 2758 2815 
Q 2500 3097 2075 3097 
Q 1594 3097 1305 2825 
Q 1016 2553 972 2059 
L 3022 2063 
z
" transform="scale(0.015625)"/>
       <path id="DejaVuSans-20" transform="scale(0.015625)"/>
       <path id="DejaVuSans-69" d="M 603 3500 
L 1178 3500 
L 1178 0 
L 603 0 
L 603 3500 
z
M 603 4863 
L 1178 4863 
L 1178 4134 
L 603 4134 
L 603 4863 
z
" transform="scale(0.015625)"/>
       <path id="DejaVuSans-6e" d="M 3513 2113 
L 3513 0 
L 2938 0 
L 2938 2094 
Q 2938 2591 2744 2837 
Q 2550 3084 2163 3084 
Q 1697 3084 1428 2787 
Q 1159 2491 1159 1978 
L 1159 0 
L 581 0 
L 581 3500 
L 1159 3500 
L 1159 2956 
Q 1366 3272 1645 3428 
Q 1925 3584 2291 3584 
Q 2894 3584 3203 3211 
Q 3513 2838 3513 2113 
z
" transform="scale(0.015625)"/>
       <path id="DejaVuSans-66" d="M 2375 4863 
L 2375 4384 
L 1825 4384 
Q 1516 4384 1395 4259 
Q 1275 4134 1275 3809 
L 1275 3500 
L 2222 3500 
L 2222 3053 
L 1275 3053 
L 1275 0 
L 697 0 
L 697 3053 
L 147 3053 
L 147 3500 
L 697 3500 
L 697 3744 
Q 697 4328 969 4595 
Q 1241 4863 1831 4863 
L 2375 4863 
z
" transform="scale(0.015625)"/>
       <path id="DejaVuSans-63" d="M 3122 3366 
L 3122 2828 
Q 2878 2963 2633 3030 
Q 2388 3097 2138 3097 
Q 1578 3097 1268 2742 
Q 959 2388 959 1747 
Q 959 1106 1268 751 
Q 1578 397 2138 397 
Q 2388 397 2633 464 
Q 2878 531 3122 666 
L 3122 134 
Q 2881 22 2623 -34 
Q 2366 -91 2075 -91 
Q 1284 -91 818 406 
Q 353 903 353 1747 
Q 353 2603 823 3093 
Q 1294 3584 2113 3584 
Q 2378 3584 2631 3529 
Q 2884 3475 3122 3366 
z
" transform="scale(0.015625)"/>
       <path id="DejaVuSans-6c" d="M 603 4863 
L 1178 4863 
L 1178 0 
L 603 0 
L 603 4863 
z
" transform="scale(0.015625)"/>
       <path id="DejaVuSans-72" d="M 2631 2963 
Q 2534 3019 2420 3045 
Q 2306 3072 2169 3072 
Q 1681 3072 1420 2755 
Q 1159 2438 1159 1844 
L 1159 0 
L 581 0 
L 581 3500 
L 1159 3500 
L 1159 2956 
Q 1341 3275 1631 3429 
Q 1922 3584 2338 3584 
Q 2397 3584 2469 3576 
Q 2541 3569 2628 3553 
L 2631 2963 
z
" transform="scale(0.015625)"/>
       <path id="DejaVuSans-73" d="M 2834 3397 
L 2834 2853 
Q 2591 2978 2328 3040 
Q 2066 3103 1784 3103 
Q 1356 3103 1142 2972 
Q 928 2841 928 2578 
Q 928 2378 1081 2264 
Q 1234 2150 1697 2047 
L 1894 2003 
Q 2506 1872 2764 1633 
Q 3022 1394 3022 966 
Q 3022 478 2636 193 
Q 2250 -91 1575 -91 
Q 1294 -91 989 -36 
Q 684 19 347 128 
L 347 722 
Q 666 556 975 473 
Q 1284 391 1588 391 
Q 1994 391 2212 530 
Q 2431 669 2431 922 
Q 2431 1156 2273 1281 
Q 2116 1406 1581 1522 
L 1381 1569 
Q 847 1681 609 1914 
Q 372 2147 372 2553 
Q 372 3047 722 3315 
Q 1072 3584 1716 3584 
Q 2034 3584 2315 3537 
Q 2597 3491 2834 3397 
z
" transform="scale(0.015625)"/>
      </defs>
      <use xlink:href="#DejaVuSans-64"/>
      <use xlink:href="#DejaVuSans-61" x="63.476562"/>
      <use xlink:href="#DejaVuSans-74" x="124.755859"/>
      <use xlink:href="#DejaVuSans-65" x="163.964844"/>
      <use xlink:href="#DejaVuSans-20" x="225.488281"/>
      <use xlink:href="#DejaVuSans-69" x="257.275391"/>
      <use xlink:href="#DejaVuSans-6e" x="285.058594"/>
      <use xlink:href="#DejaVuSans-20" x="348.4375"/>
      <use xlink:href="#DejaVuSans-66" x="380.224609"/>
      <use xlink:href="#DejaVuSans-69" x="415.429688"/>
      <use xlink:href="#DejaVuSans-6e" x="443.212891"/>
      <use xlink:href="#DejaVuSans-61" x="506.591797"/>
      <use xlink:href="#DejaVuSans-6e" x="567.871094"/>
      <use xlink:href="#DejaVuSans-63" x="631.25"/>
      <use xlink:href="#DejaVuSans-69" x="686.230469"/>
      <use xlink:href="#DejaVuSans-61" x="714.013672"/>
      <use xlink:href="#DejaVuSans-6c" x="775.292969"/>
      <use xlink:href="#DejaVuSans-20" x="803.076172"/>
      <use xlink:href="#DejaVuSans-63" x="834.863281"/>
      <use xlink:href="#DejaVuSans-72" x="889.84375"/>
      <use xlink:href="#DejaVuSans-69" x="930.957031"/>
      <use xlink:href="#DejaVuSans-72" x="958.740234"/>
      <use xlink:href="#DejaVuSans-73" x="999.853516"/>
      <use xlink:href="#DejaVuSans-69" x="1051.953125"/>
      <use xlink:href="#DejaVuSans-73" x="1079.736328"/>
     </g>
    </g>
   </g>
   <g id="matplotlib.axis_2">
    <g id="ytick_1">
     <g id="line2d_10">
      <defs>
       <path id="m117e737be5" d="M 0 0 
L -3.5 0 
" style="stroke: #000000; stroke-width: 0.8"/>
      </defs>
      <g>
       <use xlink:href="#m117e737be5" x="48.22404" y="239.248587" style="stroke: #000000; stroke-width: 0.8"/>
      </g>
     </g>
     <g id="text_11">
      <!-- 600 -->
      <g transform="translate(22.13654 243.047805) scale(0.1 -0.1)">
       <defs>
        <path id="DejaVuSans-36" d="M 2113 2584 
Q 1688 2584 1439 2293 
Q 1191 2003 1191 1497 
Q 1191 994 1439 701 
Q 1688 409 2113 409 
Q 2538 409 2786 701 
Q 3034 994 3034 1497 
Q 3034 2003 2786 2293 
Q 2538 2584 2113 2584 
z
M 3366 4563 
L 3366 3988 
Q 3128 4100 2886 4159 
Q 2644 4219 2406 4219 
Q 1781 4219 1451 3797 
Q 1122 3375 1075 2522 
Q 1259 2794 1537 2939 
Q 1816 3084 2150 3084 
Q 2853 3084 3261 2657 
Q 3669 2231 3669 1497 
Q 3669 778 3244 343 
Q 2819 -91 2113 -91 
Q 1303 -91 875 529 
Q 447 1150 447 2328 
Q 447 3434 972 4092 
Q 1497 4750 2381 4750 
Q 2619 4750 2861 4703 
Q 3103 4656 3366 4563 
z
" transform="scale(0.015625)"/>
       </defs>
       <use xlink:href="#DejaVuSans-36"/>
       <use xlink:href="#DejaVuSans-30" x="63.623047"/>
       <use xlink:href="#DejaVuSans-30" x="127.246094"/>
      </g>
     </g>
    </g>
    <g id="ytick_2">
     <g id="line2d_11">
      <g>
       <use xlink:href="#m117e737be5" x="48.22404" y="203.09351" style="stroke: #000000; stroke-width: 0.8"/>
      </g>
     </g>
     <g id="text_12">
      <!-- 800 -->
      <g transform="translate(22.13654 206.892728) scale(0.1 -0.1)">
       <use xlink:href="#DejaVuSans-38"/>
       <use xlink:href="#DejaVuSans-30" x="63.623047"/>
       <use xlink:href="#DejaVuSans-30" x="127.246094"/>
      </g>
     </g>
    </g>
    <g id="ytick_3">
     <g id="line2d_12">
      <g>
       <use xlink:href="#m117e737be5" x="48.22404" y="166.938433" style="stroke: #000000; stroke-width: 0.8"/>
      </g>
     </g>
     <g id="text_13">
      <!-- 1000 -->
      <g transform="translate(15.77404 170.737651) scale(0.1 -0.1)">
       <use xlink:href="#DejaVuSans-31"/>
       <use xlink:href="#DejaVuSans-30" x="63.623047"/>
       <use xlink:href="#DejaVuSans-30" x="127.246094"/>
       <use xlink:href="#DejaVuSans-30" x="190.869141"/>
      </g>
     </g>
    </g>
    <g id="ytick_4">
     <g id="line2d_13">
      <g>
       <use xlink:href="#m117e737be5" x="48.22404" y="130.783356" style="stroke: #000000; stroke-width: 0.8"/>
      </g>
     </g>
     <g id="text_14">
      <!-- 1200 -->
      <g transform="translate(15.77404 134.582575) scale(0.1 -0.1)">
       <use xlink:href="#DejaVuSans-31"/>
       <use xlink:href="#DejaVuSans-32" x="63.623047"/>
       <use xlink:href="#DejaVuSans-30" x="127.246094"/>
       <use xlink:href="#DejaVuSans-30" x="190.869141"/>
      </g>
     </g>
    </g>
    <g id="ytick_5">
     <g id="line2d_14">
      <g>
       <use xlink:href="#m117e737be5" x="48.22404" y="94.628279" style="stroke: #000000; stroke-width: 0.8"/>
      </g>
     </g>
     <g id="text_15">
      <!-- 1400 -->
      <g transform="translate(15.77404 98.427498) scale(0.1 -0.1)">
       <defs>
        <path id="DejaVuSans-34" d="M 2419 4116 
L 825 1625 
L 2419 1625 
L 2419 4116 
z
M 2253 4666 
L 3047 4666 
L 3047 1625 
L 3713 1625 
L 3713 1100 
L 3047 1100 
L 3047 0 
L 2419 0 
L 2419 1100 
L 313 1100 
L 313 1709 
L 2253 4666 
z
" transform="scale(0.015625)"/>
       </defs>
       <use xlink:href="#DejaVuSans-31"/>
       <use xlink:href="#DejaVuSans-34" x="63.623047"/>
       <use xlink:href="#DejaVuSans-30" x="127.246094"/>
       <use xlink:href="#DejaVuSans-30" x="190.869141"/>
      </g>
     </g>
    </g>
    <g id="ytick_6">
     <g id="line2d_15">
      <g>
       <use xlink:href="#m117e737be5" x="48.22404" y="58.473202" style="stroke: #000000; stroke-width: 0.8"/>
      </g>
     </g>
     <g id="text_16">
      <!-- 1600 -->
      <g transform="translate(15.77404 62.272421) scale(0.1 -0.1)">
       <use xlink:href="#DejaVuSans-31"/>
       <use xlink:href="#DejaVuSans-36" x="63.623047"/>
       <use xlink:href="#DejaVuSans-30" x="127.246094"/>
       <use xlink:href="#DejaVuSans-30" x="190.869141"/>
      </g>
     </g>
    </g>
    <g id="ytick_7">
     <g id="line2d_16">
      <g>
       <use xlink:href="#m117e737be5" x="48.22404" y="22.318125" style="stroke: #000000; stroke-width: 0.8"/>
      </g>
     </g>
     <g id="text_17">
      <!-- 1800 -->
      <g transform="translate(15.77404 26.117344) scale(0.1 -0.1)">
       <use xlink:href="#DejaVuSans-31"/>
       <use xlink:href="#DejaVuSans-38" x="63.623047"/>
       <use xlink:href="#DejaVuSans-30" x="127.246094"/>
       <use xlink:href="#DejaVuSans-30" x="190.869141"/>
      </g>
     </g>
    </g>
   </g>
   <g id="line2d_17">
    <path d="M 47.490734 91.320089 
L 48.71291 91.627407 
L 48.957346 91.312858 
L 49.201781 92.87295 
L 49.935087 92.307123 
L 50.179522 92.439089 
L 50.423957 91.943764 
L 50.912828 89.073051 
L 51.890569 88.861544 
L 52.135005 89.092937 
L 52.37944 89.861232 
L 52.623875 89.11463 
L 53.357181 90.479484 
L 53.601617 89.568376 
L 53.846052 87.373763 
L 54.090487 90.307747 
L 54.334923 90.618681 
L 55.068228 90.90069 
L 55.801534 86.323458 
L 56.04597 85.880558 
L 56.779276 86.133644 
L 57.023711 85.95106 
L 57.268146 85.585894 
L 57.512582 85.89502 
L 57.757017 87.747968 
L 58.490323 88.595804 
L 58.979194 84.6314 
L 59.223629 84.358429 
L 59.468064 84.588014 
L 60.445805 83.839604 
L 60.934676 84.436163 
L 61.179111 85.374387 
L 61.912417 85.703398 
L 62.156853 94.801823 
L 62.401288 93.395391 
L 62.645723 94.055221 
L 62.890159 96.947627 
L 63.623465 99.306746 
L 63.8679 95.458038 
L 64.112335 96.079905 
L 64.356771 94.286613 
L 64.601206 94.114877 
L 65.334512 93.435161 
L 65.578947 98.614376 
L 66.067818 96.023865 
L 66.312253 96.987398 
L 67.045559 94.255882 
L 67.289994 92.650596 
L 67.53443 88.293909 
L 67.778865 88.384297 
L 68.0233 88.10048 
L 68.756606 87.849202 
L 69.245477 91.513519 
L 69.489912 90.555409 
L 69.734348 90.857304 
L 70.467654 90.190243 
L 70.712089 87.800393 
L 70.956524 87.511152 
L 71.200959 86.717548 
L 72.178701 86.563889 
L 72.423136 85.880558 
L 72.667571 87.60154 
L 73.156442 85.0743 
L 74.134183 81.706454 
L 74.378619 81.522063 
L 74.623054 81.842036 
L 74.867489 79.379875 
L 75.845231 80.09213 
L 76.089666 77.378692 
L 76.334101 77.590199 
L 76.578536 77.622738 
L 77.311842 79.73781 
L 77.556278 79.027363 
L 78.045148 76.118687 
L 78.289584 75.534783 
L 79.02289 74.83699 
L 79.267325 75.155154 
L 79.51176 74.276586 
L 79.756196 78.092754 
L 80.000631 75.493204 
L 80.733937 75.981298 
L 80.978372 76.335618 
L 81.222808 73.994576 
L 81.467243 74.245854 
L 81.711678 72.4381 
L 82.444984 72.013278 
L 82.689419 72.190438 
L 82.933855 72.523065 
L 83.17829 75.193117 
L 83.422725 73.707144 
L 84.400467 73.276898 
L 84.644902 71.085901 
L 84.889337 71.015398 
L 85.133773 69.981363 
L 85.867079 69.467961 
L 86.111514 70.955742 
L 86.355949 73.408864 
L 86.600385 78.228336 
L 86.84482 75.164193 
L 87.578126 74.902069 
L 87.822561 77.816168 
L 88.066996 73.71799 
L 88.555867 70.601422 
L 89.289173 70.937665 
L 89.533608 70.45861 
L 89.778044 74.229584 
L 90.022479 72.539335 
L 90.266914 76.087955 
L 91.00022 76.959293 
L 91.244656 77.836053 
L 91.489091 75.404624 
L 91.733526 75.518513 
L 91.977962 75.945143 
L 92.955703 72.054857 
L 93.444573 71.959046 
L 93.689009 71.047938 
L 94.422315 70.793044 
L 94.66675 74.721293 
L 94.911185 73.159394 
L 95.155621 67.927755 
L 95.400056 67.060033 
L 96.133362 67.598743 
L 96.377797 67.62586 
L 96.622233 68.204341 
L 96.866668 66.955183 
L 97.111103 70.3863 
L 97.844409 69.035908 
L 98.088844 74.55498 
L 98.33328 73.280514 
L 98.82215 83.97157 
L 99.555456 81.26717 
L 99.799892 84.636823 
L 100.288762 81.576296 
L 100.533198 88.651845 
L 101.510939 80.760999 
L 101.755374 77.004487 
L 101.99981 85.030914 
L 102.244245 84.931487 
L 102.977551 85.061645 
L 103.466421 93.417084 
L 103.710857 92.59094 
L 103.955292 86.323458 
L 104.688598 86.39396 
L 104.933033 86.110143 
L 105.177469 83.046 
L 105.421904 83.329817 
L 105.666339 80.280137 
L 106.399645 82.554291 
L 106.644081 88.778387 
L 106.888516 83.10204 
L 107.132951 84.208386 
L 107.377387 81.252708 
L 108.355128 78.463344 
L 108.599563 81.560026 
L 108.843998 80.428372 
L 109.088434 84.947757 
L 109.82174 85.282191 
L 110.066175 81.704647 
L 110.31061 81.691992 
L 110.555046 79.452185 
L 110.799481 79.397953 
L 111.532787 80.771846 
L 111.777222 72.975003 
L 112.021658 71.302831 
L 112.266093 73.161202 
L 112.510528 71.895774 
L 113.243834 73.345593 
L 113.48827 73.439596 
L 113.97714 70.878009 
L 114.221576 71.714999 
L 114.954881 68.047066 
L 115.199317 68.121184 
L 115.443752 69.393843 
L 115.688187 68.806323 
L 115.932623 66.139886 
L 116.665929 67.045571 
L 116.910364 64.773224 
L 117.154799 65.257702 
L 117.399235 66.714752 
L 117.64367 65.378822 
L 118.376976 67.745171 
L 118.621411 69.585465 
L 118.865847 69.095564 
L 119.110282 69.305263 
L 119.354717 76.436852 
L 120.088023 75.406432 
L 120.332458 73.009351 
L 120.576894 73.680027 
L 120.821329 73.947575 
L 121.065764 70.172985 
L 121.79907 69.142565 
L 122.043506 70.943088 
L 122.287941 67.624052 
L 122.532376 75.024996 
L 122.776812 74.806258 
L 123.510118 76.158458 
L 123.754553 72.886423 
L 123.998988 80.958044 
L 124.243424 81.111703 
L 124.487859 84.920641 
L 125.221165 87.545499 
L 125.4656 79.976434 
L 125.710035 81.869152 
L 125.954471 85.381618 
L 126.198906 84.009533 
L 126.932212 88.613882 
L 127.176647 87.451496 
L 127.421083 91.596676 
L 127.909953 87.270721 
L 128.643259 93.323081 
L 128.887695 89.52499 
L 129.13213 82.151162 
L 129.376565 82.024619 
L 129.621001 79.960164 
L 130.354307 81.536525 
L 130.598742 83.277392 
L 131.087612 75.223849 
L 131.332048 75.708327 
L 132.065354 73.665565 
L 132.309789 80.59107 
L 132.554224 78.974938 
L 132.79866 78.645927 
L 133.043095 82.344591 
L 133.776401 86.330689 
L 134.020836 84.689248 
L 134.265272 85.047183 
L 134.509707 83.760063 
L 134.754142 79.35999 
L 135.487448 77.192493 
L 135.976319 76.973755 
L 136.220754 80.84054 
L 136.465189 80.439219 
L 137.198495 82.270474 
L 137.687366 86.102912 
L 137.931801 86.102912 
L 138.176237 92.525861 
L 138.909543 91.703333 
L 139.153978 96.401685 
L 139.642849 90.953115 
L 139.887284 94.443888 
L 140.62059 91.690679 
L 140.865025 98.07205 
L 141.109461 99.473059 
L 141.353896 106.695036 
L 141.598331 108.152085 
L 142.576072 110.807676 
L 142.820508 105.727887 
L 143.064943 103.292843 
L 143.309378 107.172283 
L 144.28712 101.443511 
L 144.531555 102.616743 
L 145.020426 95.45623 
L 145.753732 98.095551 
L 145.998167 106.082207 
L 146.242602 107.924308 
L 146.487038 106.033398 
L 146.731473 107.049356 
L 147.464779 105.632077 
L 147.709214 103.873132 
L 147.953649 100.555904 
L 148.198085 103.873132 
L 148.44252 103.668856 
L 149.420261 103.887594 
L 149.664697 101.853871 
L 149.909132 105.01744 
L 150.153567 103.104837 
L 150.886873 99.726145 
L 151.131309 98.010586 
L 151.375744 98.240171 
L 151.620179 100.470939 
L 151.864615 107.168667 
L 152.59792 107.040317 
L 152.842356 107.870076 
L 153.086791 106.613687 
L 153.331226 111.921252 
L 153.575662 113.904358 
L 154.308968 117.519866 
L 154.553403 108.972806 
L 154.797838 111.120417 
L 155.042274 109.907414 
L 155.286709 114.849813 
L 156.020015 116.935961 
L 156.26445 107.148782 
L 156.508886 112.991442 
L 156.753321 107.371136 
L 157.975497 103.12653 
L 158.708803 109.954416 
L 159.442109 108.602216 
L 159.686545 100.019001 
L 159.93098 100.498056 
L 160.419851 99.97923 
L 161.153157 99.592371 
L 161.397592 100.857799 
L 161.642027 102.855367 
L 161.886463 101.759868 
L 162.130898 106.770961 
L 162.864204 107.586258 
L 163.108639 106.481721 
L 163.353074 101.007842 
L 163.59751 100.854183 
L 163.841945 96.376377 
L 164.575251 96.766852 
L 164.819686 98.977735 
L 165.064122 98.256441 
L 165.552992 95.018754 
L 166.286298 95.284493 
L 166.775169 97.233252 
L 167.019604 92.939837 
L 167.26404 92.115501 
L 167.997346 93.274271 
L 168.241781 91.32732 
L 168.486216 95.97144 
L 168.730651 95.047678 
L 168.975087 96.746966 
L 169.708393 93.981103 
L 169.952828 94.078722 
L 170.197263 93.062764 
L 170.441699 90.367403 
L 170.686134 90.045623 
L 171.41944 89.81423 
L 171.663875 92.205889 
L 171.908311 96.307682 
L 172.152746 95.64966 
L 172.397181 98.979542 
L 173.374923 97.276638 
L 174.108228 94.559584 
L 174.841534 97.21879 
L 175.08597 98.668609 
L 175.330405 98.749958 
L 175.57484 93.896139 
L 175.819276 101.736367 
L 176.552582 101.54113 
L 176.797017 102.141304 
L 177.041452 106.290099 
L 177.285888 105.498303 
L 177.530323 101.853871 
L 178.263629 101.833986 
L 178.7525 105.8707 
L 178.996935 104.963208 
L 179.24137 109.464515 
L 179.974676 109.45186 
L 180.219111 110.122537 
L 180.463547 108.734182 
L 180.707982 115.751883 
L 180.952417 116.614181 
L 181.685723 116.321325 
L 181.930159 115.433718 
L 182.174594 119.662054 
L 182.419029 119.412584 
L 183.396771 121.326995 
L 183.641206 117.46021 
L 183.885641 122.704504 
L 184.130077 121.131758 
L 184.374512 123.644536 
L 185.107818 125.667412 
L 185.352253 128.087995 
L 185.596688 122.583384 
L 185.841124 119.878985 
L 186.085559 119.813905 
L 186.818865 119.936833 
L 187.0633 116.863651 
L 187.307736 115.925427 
L 187.552171 121.285417 
L 187.796606 120.34177 
L 188.529912 124.570106 
L 189.018783 115.551222 
L 189.263218 118.60271 
L 189.507654 119.880792 
L 190.240959 121.923554 
L 190.485395 115.439141 
L 190.72983 114.659999 
L 190.974265 118.839526 
L 191.218701 113.371071 
L 191.952007 111.744092 
L 192.196442 114.587689 
L 192.440877 115.267405 
L 192.929748 113.031213 
L 193.663054 116.574411 
L 193.907489 118.727445 
L 194.151925 117.308359 
L 194.39636 116.733493 
L 194.640795 114.115865 
L 195.374101 118.700329 
L 195.618536 117.856108 
L 195.862972 116.021238 
L 196.107407 112.58289 
L 196.351842 115.809731 
L 197.329584 116.758801 
L 197.574019 117.228817 
L 197.818454 124.125398 
L 198.06289 123.134749 
L 198.796196 118.528592 
L 199.040631 126.352551 
L 199.285066 124.991312 
L 199.529502 121.916323 
L 199.773937 121.437268 
L 200.507243 132.103016 
L 200.751678 128.324811 
L 200.996113 138.66697 
L 201.484984 120.826248 
L 202.462725 132.91289 
L 202.707161 133.337712 
L 202.951596 129.123838 
L 203.196031 128.384466 
L 203.929337 147.700316 
L 204.173773 136.86464 
L 204.418208 137.822749 
L 204.662643 146.279422 
L 205.640385 156.654121 
L 205.88482 167.619956 
L 206.129255 169.66091 
L 206.37369 183.222679 
L 206.618126 185.156976 
L 207.351432 166.332835 
L 207.595867 167.298176 
L 207.840302 183.598692 
L 208.084738 176.62257 
L 208.329173 177.685529 
L 209.062479 169.577753 
L 209.306914 175.064286 
L 209.55135 185.598068 
L 209.795785 183.549883 
L 210.04022 189.215383 
L 210.773526 194.249978 
L 211.017962 177.69276 
L 211.262397 179.57644 
L 211.751267 172.587663 
L 212.484573 173.030563 
L 212.729009 165.898974 
L 213.217879 184.133787 
L 213.462315 179.413742 
L 214.195621 181.543276 
L 214.440056 185.205785 
L 214.684491 193.638957 
L 214.928927 182.975017 
L 215.173362 189.844482 
L 215.906668 193.919159 
L 216.151103 192.406069 
L 216.639974 211.691187 
L 216.884409 203.088086 
L 217.617715 193.727537 
L 217.86215 192.71881 
L 218.106586 187.243124 
L 218.595456 185.695687 
L 219.328762 200.163141 
L 219.817633 190.305459 
L 220.062068 194.918847 
L 220.306504 189.341926 
L 221.03981 183.26245 
L 221.284245 187.064156 
L 221.52868 185.15336 
L 221.773116 189.790249 
L 222.017551 188.680288 
L 222.750857 190.697741 
L 222.995292 182.633352 
L 223.239727 184.216944 
L 223.484163 187.676985 
L 223.728598 187.206969 
L 224.461904 190.144569 
L 224.706339 191.675736 
L 224.950775 190.773667 
L 225.439645 189.933062 
L 226.172951 190.544082 
L 226.661822 184.428451 
L 227.150693 179.267314 
L 227.883998 180.053687 
L 228.128434 178.743065 
L 228.372869 183.813815 
L 228.617304 183.257027 
L 228.86174 186.760454 
L 229.595046 190.392231 
L 229.839481 190.115645 
L 230.083916 195.388863 
L 230.328352 195.186394 
L 230.572787 194.033047 
L 231.550528 202.149862 
L 231.794964 195.819108 
L 232.039399 198.122187 
L 232.283834 197.317736 
L 233.01714 196.482554 
L 233.261576 194.830267 
L 233.506011 189.699861 
L 233.994881 198.415043 
L 234.728187 198.494584 
L 234.972623 196.13185 
L 235.217058 197.267119 
L 235.461493 194.804958 
L 235.705929 190.692318 
L 236.439235 190.459118 
L 236.68367 198.18365 
L 236.928105 196.994148 
L 237.172541 196.732024 
L 237.416976 198.241498 
L 238.394717 205.051307 
L 238.639153 205.186889 
L 239.861329 213.338051 
L 240.105764 207.949136 
L 240.3502 209.438726 
L 240.594635 211.620685 
L 240.83907 214.82764 
L 241.572376 221.022812 
L 241.816812 221.834494 
L 242.061247 218.844469 
L 242.305682 224.325579 
L 242.550118 224.175535 
L 243.283424 225.413846 
L 243.527859 217.627851 
L 243.772294 217.309686 
L 244.01673 211.998505 
L 244.261165 210.9482 
L 244.994471 211.429063 
L 245.483341 204.114891 
L 245.727777 205.978685 
L 245.972212 208.780703 
L 246.705518 198.950138 
L 246.949953 201.987164 
L 247.194389 200.584347 
L 247.438824 197.15323 
L 247.683259 200.21195 
L 248.416565 205.347779 
L 248.905436 201.090518 
L 249.149871 196.878452 
L 249.394307 195.410556 
L 250.127612 196.679599 
L 250.372048 200.282452 
L 250.616483 198.545201 
L 250.860918 192.868854 
L 251.83866 192.476571 
L 252.083095 195.591331 
L 252.816401 190.511543 
L 253.549707 197.238195 
L 253.794142 194.040278 
L 254.038578 195.220742 
L 254.283013 193.707652 
L 254.527448 191.120756 
L 255.505189 193.121939 
L 255.749625 189.78121 
L 255.99406 189.931254 
L 256.238495 189.079802 
L 256.971801 183.707157 
L 257.216237 184.329025 
L 257.460672 181.485428 
L 257.705107 183.680041 
L 257.949543 179.731907 
L 258.682849 183.345607 
L 258.927284 183.506497 
L 259.171719 187.922839 
L 259.416155 186.268745 
L 259.66059 188.110846 
L 260.393896 183.260642 
L 260.638331 183.546267 
L 260.882766 184.388681 
L 261.127202 187.12562 
L 261.371637 187.366051 
L 262.349378 183.148561 
L 262.593814 186.270552 
L 263.082684 181.55593 
L 263.81599 177.26613 
L 264.060426 176.92808 
L 264.304861 179.274545 
L 264.549296 177.340248 
L 264.793732 177.768686 
L 265.527038 177.940423 
L 265.771473 177.345672 
L 266.015908 177.938615 
L 266.260343 176.900964 
L 266.504779 176.662341 
L 267.238085 180.727979 
L 267.48252 182.85209 
L 267.726955 183.079867 
L 267.971391 181.695127 
L 268.215826 181.17811 
L 268.949132 186.274168 
L 269.193567 185.901771 
L 269.438003 184.846042 
L 269.682438 181.353462 
L 269.926873 181.599316 
L 270.660179 180.093457 
L 270.904615 181.523391 
L 271.14905 180.798481 
L 271.393485 185.663147 
L 272.371226 185.247364 
L 272.615662 188.44528 
L 272.860097 188.71102 
L 273.104532 188.147001 
L 273.348968 188.788753 
L 274.326709 183.960243 
L 274.571144 179.108232 
L 274.81558 177.651182 
L 275.060015 177.716261 
L 276.037756 175.149251 
L 276.282192 175.241446 
L 276.526627 171.224617 
L 276.771062 170.687714 
L 277.504368 170.15985 
L 277.748803 170.622635 
L 277.993239 171.430701 
L 278.237674 169.333707 
L 278.482109 169.201741 
L 279.459851 165.917052 
L 279.704286 166.446724 
L 279.948721 167.466297 
L 280.193157 165.043907 
L 280.926463 165.654927 
L 281.170898 167.959814 
L 281.659769 164.637162 
L 282.63751 170.60275 
L 283.370816 165.606118 
L 283.615251 162.214772 
L 284.348557 162.316006 
L 284.592992 161.876722 
L 284.837428 161.855029 
L 285.081863 161.338011 
L 285.326298 161.708601 
L 286.059604 163.210844 
L 286.30404 167.292752 
L 286.548475 167.887503 
L 286.79291 166.35272 
L 287.037346 163.973716 
L 288.015087 162.348546 
L 288.503957 158.959007 
L 288.748393 159.213901 
L 289.726134 157.424224 
L 289.970569 154.508317 
L 290.215005 155.099453 
L 290.45944 154.591474 
L 291.192746 155.249496 
L 291.437181 153.984069 
L 291.926052 157.758659 
L 292.170487 158.915621 
L 292.903793 155.553199 
L 293.392664 156.619774 
L 293.637099 161.542287 
L 293.881534 162.381085 
L 294.61484 159.624261 
L 294.859276 157.046404 
L 295.103711 156.529386 
L 295.592582 154.0148 
L 296.325888 153.165156 
L 296.570323 153.707482 
L 296.814758 150.303482 
L 297.059194 149.482762 
L 297.303629 151.088047 
L 298.036935 149.238715 
L 298.525805 152.223316 
L 298.770241 150.142592 
L 299.014676 152.548712 
L 299.992417 155.475466 
L 300.236853 159.231978 
L 300.481288 154.987372 
L 300.725723 160.396172 
L 301.9479 158.532377 
L 302.192335 154.893369 
L 302.436771 154.410699 
L 303.170077 150.11186 
L 303.414512 150.124514 
L 303.658947 149.13025 
L 303.903382 151.167588 
L 304.881124 147.179683 
L 305.125559 146.995292 
L 305.369994 147.089295 
L 305.61443 149.782849 
L 305.858865 150.419178 
L 306.592171 147.732856 
L 306.836606 147.839513 
L 307.081042 146.939252 
L 307.569912 150.399293 
L 308.303218 149.650883 
L 308.547654 147.259224 
L 308.792089 147.19053 
L 309.036524 148.875356 
L 309.280959 147.779857 
L 310.014265 148.273374 
L 310.258701 150.317944 
L 310.503136 149.593035 
L 310.992007 147.702124 
L 311.725313 146.310154 
L 311.969748 147.427345 
L 312.214183 147.201376 
L 312.458619 149.569534 
L 312.703054 148.414379 
L 314.169666 144.073962 
L 315.147407 143.838954 
L 315.391842 144.124579 
L 315.636278 144.084809 
L 315.880713 146.131186 
L 317.10289 142.258977 
L 317.347325 142.146896 
L 317.836196 140.729617 
L 318.569502 140.368067 
L 318.813937 142.31321 
L 319.058372 140.603075 
L 319.302808 140.100519 
L 319.547243 142.347557 
L 320.524984 139.780547 
L 320.769419 141.984199 
L 321.25829 150.350483 
L 321.991596 149.442991 
L 322.236031 150.276365 
L 322.480467 149.312833 
L 322.969337 153.584555 
L 323.702643 150.815076 
L 323.947079 148.26072 
L 324.191514 149.352603 
L 324.435949 155.529698 
L 324.680385 154.97291 
L 325.41369 156.681237 
L 325.658126 154.190153 
L 325.902561 154.622206 
L 326.146996 152.752988 
L 326.391432 153.288083 
L 328.102479 147.203184 
L 328.835785 147.412883 
L 329.08022 149.837081 
L 329.324656 147.913631 
L 329.569091 148.329415 
L 329.813526 148.049213 
L 330.791267 145.550897 
L 331.035703 145.464125 
L 331.280138 144.708484 
L 331.524573 141.864887 
L 332.257879 141.901042 
L 332.502315 141.54853 
L 332.991185 139.778739 
L 333.235621 139.823933 
L 333.968927 139.72993 
L 334.457797 136.891756 
L 334.702233 136.960451 
L 334.946668 138.032449 
L 335.679974 136.964066 
L 335.924409 135.452784 
L 336.168844 136.618785 
L 336.41328 136.978528 
L 336.657715 136.823061 
L 337.391021 135.624521 
L 337.635456 135.615482 
L 337.879892 136.309659 
L 338.124327 134.742337 
L 339.346504 132.692344 
L 339.590939 133.955964 
L 339.835374 133.23467 
L 340.07981 131.801121 
L 341.057551 131.271449 
L 341.301986 128.858098 
L 341.546421 128.673707 
L 341.790857 132.206058 
L 342.524163 131.231679 
L 342.768598 129.487196 
L 343.013033 129.70955 
L 343.257469 129.216033 
L 343.501904 127.659557 
L 344.23521 128.605012 
L 344.479645 133.728187 
L 344.724081 132.345255 
L 344.968516 129.557699 
L 345.212951 133.189476 
L 345.946257 130.374803 
L 346.190693 135.555826 
L 346.435128 136.95322 
L 346.679563 143.772067 
L 346.923998 146.894058 
L 347.657304 138.063181 
L 347.90174 138.775436 
L 348.146175 135.904722 
L 348.39061 138.477156 
L 348.635046 142.410829 
L 349.368352 142.183052 
L 349.612787 145.100766 
L 349.857222 146.140225 
L 350.101658 153.996723 
L 350.346093 151.086239 
L 351.079399 153.624326 
L 351.323834 153.555631 
L 351.56827 154.654745 
L 351.812705 148.307722 
L 352.05714 150.775306 
L 353.034881 154.155805 
L 353.279317 149.15375 
L 353.523752 148.3493 
L 353.768187 155.209726 
L 354.501493 157.814699 
L 354.745929 155.730359 
L 354.990364 156.871052 
L 355.234799 151.239898 
L 355.479235 150.379407 
L 356.212541 150.735535 
L 356.456976 146.107685 
L 356.701411 146.219766 
L 357.190282 145.695517 
L 357.923588 146.474659 
L 358.168023 149.708731 
L 358.412458 150.299866 
L 358.656894 153.617095 
L 358.901329 153.062114 
L 359.634635 153.458012 
L 359.87907 159.483256 
L 360.123506 161.386821 
L 360.612376 162.856525 
L 361.590118 161.865875 
L 361.834553 156.0431 
L 362.323424 152.845184 
L 363.05673 152.702371 
L 363.301165 149.703308 
L 363.5456 149.734039 
L 363.790035 149.497224 
L 364.034471 155.209726 
L 364.767777 154.058187 
L 365.012212 151.847304 
L 365.256647 154.358274 
L 365.501083 150.005202 
L 365.745518 148.380032 
L 366.478824 146.147456 
L 366.723259 146.358963 
L 367.21213 148.584308 
L 367.456565 148.571654 
L 368.189871 144.186043 
L 368.434307 145.16223 
L 368.678742 143.936573 
L 368.923177 144.195082 
L 369.167612 144.948915 
L 369.900918 143.837146 
L 370.145354 145.053765 
L 370.389789 150.764459 
L 370.87866 152.611983 
L 371.611966 152.588483 
L 371.856401 150.209479 
L 372.100836 149.916622 
L 372.345272 153.26639 
L 372.589707 153.978645 
L 373.323013 154.761403 
L 373.567448 157.561613 
L 373.811884 156.936131 
L 374.056319 158.402219 
L 374.300754 155.262151 
L 375.03406 158.094901 
L 375.278495 158.020783 
L 375.522931 152.423977 
L 375.767366 150.650571 
L 376.011801 148.045597 
L 376.989543 150.336021 
L 377.478413 148.105253 
L 377.722849 147.134489 
L 378.456155 144.901913 
L 378.70059 145.046534 
L 378.945025 144.328855 
L 379.189461 144.402973 
L 379.433896 144.234852 
L 380.167202 141.139978 
L 380.411637 141.669649 
L 380.656072 142.663914 
L 380.900508 144.372241 
L 381.144943 140.062556 
L 381.878249 141.239404 
L 382.122684 140.237908 
L 382.611555 141.412948 
L 382.85599 140.50184 
L 383.589296 142.166782 
L 383.833732 137.87879 
L 384.078167 138.019794 
L 384.322602 138.365075 
L 384.567038 137.083378 
L 385.300343 137.052646 
L 385.544779 136.248196 
L 385.789214 134.742337 
L 386.033649 135.517863 
L 386.278085 135.087618 
L 387.011391 133.547411 
L 387.255826 136.947796 
L 387.500261 134.729682 
L 387.989132 133.842075 
L 388.722438 133.382906 
L 388.966873 133.37929 
L 389.211309 133.955964 
L 389.455744 133.715533 
L 389.700179 133.809536 
L 390.433485 133.607067 
L 390.67792 131.945741 
L 390.922356 131.152138 
L 391.166791 126.976226 
L 391.411226 126.110312 
L 392.144532 126.580328 
L 392.388968 128.360966 
L 392.633403 127.401048 
L 392.877838 128.335657 
L 393.122274 130.926168 
L 393.85558 131.1901 
L 394.100015 134.698951 
L 394.34445 134.653757 
L 394.588886 131.381722 
L 394.833321 130.832165 
L 395.566627 131.173831 
L 395.811062 134.266897 
L 396.055497 131.081635 
L 396.544368 132.699575 
L 397.277674 132.996046 
L 397.522109 134.299437 
L 398.01098 126.891262 
L 398.255415 126.316396 
L 398.988721 126.603829 
L 399.233157 126.48994 
L 399.722027 124.817768 
L 399.966463 123.48003 
L 400.699769 123.469184 
L 400.944204 123.264908 
L 401.188639 124.414639 
L 401.433074 123.033515 
L 402.410816 122.272451 
L 402.899686 120.146532 
L 403.144122 120.520737 
L 404.121863 120.38154 
L 404.610734 119.976603 
L 404.855169 120.320077 
L 405.099604 120.363463 
L 405.83291 117.791029 
L 405.83291 117.791029 
" clip-path="url(#pf707513241)" style="fill: none; stroke: #000000; stroke-width: 1.5; stroke-linecap: square"/>
   </g>
   <g id="patch_3">
    <path d="M 48.22404 257.326125 
L 48.22404 22.318125 
" style="fill: none; stroke: #000000; stroke-width: 0.8; stroke-linejoin: miter; stroke-linecap: square"/>
   </g>
   <g id="patch_4">
    <path d="M 405.34404 257.326125 
L 405.34404 22.318125 
" style="fill: none; stroke: #000000; stroke-width: 0.8; stroke-linejoin: miter; stroke-linecap: square"/>
   </g>
   <g id="patch_5">
    <path d="M 48.22404 257.326125 
L 405.34404 257.326125 
" style="fill: none; stroke: #000000; stroke-width: 0.8; stroke-linejoin: miter; stroke-linecap: square"/>
   </g>
   <g id="patch_6">
    <path d="M 48.22404 22.318125 
L 405.34404 22.318125 
" style="fill: none; stroke: #000000; stroke-width: 0.8; stroke-linejoin: miter; stroke-linecap: square"/>
   </g>
   <g id="patch_7">
    <path d="M 118.399235 37.715121 
Q 118.399235 43.435932 118.399235 49.156743 
L 119.399235 49.156743 
Q 118.399235 51.15667 117.399235 53.156598 
Q 116.399235 51.15667 115.399235 49.156743 
L 116.399235 49.156743 
Q 116.399235 43.435932 116.399235 37.715121 
L 118.399235 37.715121 
z
" style="stroke: #000000; stroke-linecap: round"/>
   </g>
   <g id="text_18">
    <!-- Peak of bull Market -->
    <g transform="translate(117.399235 33.638728) scale(0.1 -0.1)">
     <defs>
      <path id="DejaVuSans-50" d="M 1259 4147 
L 1259 2394 
L 2053 2394 
Q 2494 2394 2734 2622 
Q 2975 2850 2975 3272 
Q 2975 3691 2734 3919 
Q 2494 4147 2053 4147 
L 1259 4147 
z
M 628 4666 
L 2053 4666 
Q 2838 4666 3239 4311 
Q 3641 3956 3641 3272 
Q 3641 2581 3239 2228 
Q 2838 1875 2053 1875 
L 1259 1875 
L 1259 0 
L 628 0 
L 628 4666 
z
" transform="scale(0.015625)"/>
      <path id="DejaVuSans-6b" d="M 581 4863 
L 1159 4863 
L 1159 1991 
L 2875 3500 
L 3609 3500 
L 1753 1863 
L 3688 0 
L 2938 0 
L 1159 1709 
L 1159 0 
L 581 0 
L 581 4863 
z
" transform="scale(0.015625)"/>
      <path id="DejaVuSans-6f" d="M 1959 3097 
Q 1497 3097 1228 2736 
Q 959 2375 959 1747 
Q 959 1119 1226 758 
Q 1494 397 1959 397 
Q 2419 397 2687 759 
Q 2956 1122 2956 1747 
Q 2956 2369 2687 2733 
Q 2419 3097 1959 3097 
z
M 1959 3584 
Q 2709 3584 3137 3096 
Q 3566 2609 3566 1747 
Q 3566 888 3137 398 
Q 2709 -91 1959 -91 
Q 1206 -91 779 398 
Q 353 888 353 1747 
Q 353 2609 779 3096 
Q 1206 3584 1959 3584 
z
" transform="scale(0.015625)"/>
      <path id="DejaVuSans-62" d="M 3116 1747 
Q 3116 2381 2855 2742 
Q 2594 3103 2138 3103 
Q 1681 3103 1420 2742 
Q 1159 2381 1159 1747 
Q 1159 1113 1420 752 
Q 1681 391 2138 391 
Q 2594 391 2855 752 
Q 3116 1113 3116 1747 
z
M 1159 2969 
Q 1341 3281 1617 3432 
Q 1894 3584 2278 3584 
Q 2916 3584 3314 3078 
Q 3713 2572 3713 1747 
Q 3713 922 3314 415 
Q 2916 -91 2278 -91 
Q 1894 -91 1617 61 
Q 1341 213 1159 525 
L 1159 0 
L 581 0 
L 581 4863 
L 1159 4863 
L 1159 2969 
z
" transform="scale(0.015625)"/>
      <path id="DejaVuSans-75" d="M 544 1381 
L 544 3500 
L 1119 3500 
L 1119 1403 
Q 1119 906 1312 657 
Q 1506 409 1894 409 
Q 2359 409 2629 706 
Q 2900 1003 2900 1516 
L 2900 3500 
L 3475 3500 
L 3475 0 
L 2900 0 
L 2900 538 
Q 2691 219 2414 64 
Q 2138 -91 1772 -91 
Q 1169 -91 856 284 
Q 544 659 544 1381 
z
M 1991 3584 
L 1991 3584 
z
" transform="scale(0.015625)"/>
      <path id="DejaVuSans-4d" d="M 628 4666 
L 1569 4666 
L 2759 1491 
L 3956 4666 
L 4897 4666 
L 4897 0 
L 4281 0 
L 4281 4097 
L 3078 897 
L 2444 897 
L 1241 4097 
L 1241 0 
L 628 0 
L 628 4666 
z
" transform="scale(0.015625)"/>
     </defs>
     <use xlink:href="#DejaVuSans-50"/>
     <use xlink:href="#DejaVuSans-65" x="56.677734"/>
     <use xlink:href="#DejaVuSans-61" x="118.201172"/>
     <use xlink:href="#DejaVuSans-6b" x="179.480469"/>
     <use xlink:href="#DejaVuSans-20" x="237.390625"/>
     <use xlink:href="#DejaVuSans-6f" x="269.177734"/>
     <use xlink:href="#DejaVuSans-66" x="330.359375"/>
     <use xlink:href="#DejaVuSans-20" x="365.564453"/>
     <use xlink:href="#DejaVuSans-62" x="397.351562"/>
     <use xlink:href="#DejaVuSans-75" x="460.828125"/>
     <use xlink:href="#DejaVuSans-6c" x="524.207031"/>
     <use xlink:href="#DejaVuSans-6c" x="551.990234"/>
     <use xlink:href="#DejaVuSans-20" x="579.773438"/>
     <use xlink:href="#DejaVuSans-4d" x="611.560547"/>
     <use xlink:href="#DejaVuSans-61" x="697.839844"/>
     <use xlink:href="#DejaVuSans-72" x="759.119141"/>
     <use xlink:href="#DejaVuSans-6b" x="800.232422"/>
     <use xlink:href="#DejaVuSans-65" x="854.517578"/>
     <use xlink:href="#DejaVuSans-74" x="916.041016"/>
    </g>
   </g>
   <g id="patch_8">
    <path d="M 155.797838 82.120787 
Q 155.797838 87.841597 155.797838 93.562408 
L 156.797838 93.562408 
Q 155.797838 95.562336 154.797838 97.562263 
Q 153.797838 95.562336 152.797838 93.562408 
L 153.797838 93.562408 
Q 153.797838 87.841597 153.797838 82.120787 
L 155.797838 82.120787 
z
" style="stroke: #000000; stroke-linecap: round"/>
   </g>
   <g id="text_19">
    <!-- Bear Steams False -->
    <g transform="translate(154.797838 78.044393) scale(0.1 -0.1)">
     <defs>
      <path id="DejaVuSans-42" d="M 1259 2228 
L 1259 519 
L 2272 519 
Q 2781 519 3026 730 
Q 3272 941 3272 1375 
Q 3272 1813 3026 2020 
Q 2781 2228 2272 2228 
L 1259 2228 
z
M 1259 4147 
L 1259 2741 
L 2194 2741 
Q 2656 2741 2882 2914 
Q 3109 3088 3109 3444 
Q 3109 3797 2882 3972 
Q 2656 4147 2194 4147 
L 1259 4147 
z
M 628 4666 
L 2241 4666 
Q 2963 4666 3353 4366 
Q 3744 4066 3744 3513 
Q 3744 3084 3544 2831 
Q 3344 2578 2956 2516 
Q 3422 2416 3680 2098 
Q 3938 1781 3938 1306 
Q 3938 681 3513 340 
Q 3088 0 2303 0 
L 628 0 
L 628 4666 
z
" transform="scale(0.015625)"/>
      <path id="DejaVuSans-53" d="M 3425 4513 
L 3425 3897 
Q 3066 4069 2747 4153 
Q 2428 4238 2131 4238 
Q 1616 4238 1336 4038 
Q 1056 3838 1056 3469 
Q 1056 3159 1242 3001 
Q 1428 2844 1947 2747 
L 2328 2669 
Q 3034 2534 3370 2195 
Q 3706 1856 3706 1288 
Q 3706 609 3251 259 
Q 2797 -91 1919 -91 
Q 1588 -91 1214 -16 
Q 841 59 441 206 
L 441 856 
Q 825 641 1194 531 
Q 1563 422 1919 422 
Q 2459 422 2753 634 
Q 3047 847 3047 1241 
Q 3047 1584 2836 1778 
Q 2625 1972 2144 2069 
L 1759 2144 
Q 1053 2284 737 2584 
Q 422 2884 422 3419 
Q 422 4038 858 4394 
Q 1294 4750 2059 4750 
Q 2388 4750 2728 4690 
Q 3069 4631 3425 4513 
z
" transform="scale(0.015625)"/>
      <path id="DejaVuSans-6d" d="M 3328 2828 
Q 3544 3216 3844 3400 
Q 4144 3584 4550 3584 
Q 5097 3584 5394 3201 
Q 5691 2819 5691 2113 
L 5691 0 
L 5113 0 
L 5113 2094 
Q 5113 2597 4934 2840 
Q 4756 3084 4391 3084 
Q 3944 3084 3684 2787 
Q 3425 2491 3425 1978 
L 3425 0 
L 2847 0 
L 2847 2094 
Q 2847 2600 2669 2842 
Q 2491 3084 2119 3084 
Q 1678 3084 1418 2786 
Q 1159 2488 1159 1978 
L 1159 0 
L 581 0 
L 581 3500 
L 1159 3500 
L 1159 2956 
Q 1356 3278 1631 3431 
Q 1906 3584 2284 3584 
Q 2666 3584 2933 3390 
Q 3200 3197 3328 2828 
z
" transform="scale(0.015625)"/>
      <path id="DejaVuSans-46" d="M 628 4666 
L 3309 4666 
L 3309 4134 
L 1259 4134 
L 1259 2759 
L 3109 2759 
L 3109 2228 
L 1259 2228 
L 1259 0 
L 628 0 
L 628 4666 
z
" transform="scale(0.015625)"/>
     </defs>
     <use xlink:href="#DejaVuSans-42"/>
     <use xlink:href="#DejaVuSans-65" x="68.603516"/>
     <use xlink:href="#DejaVuSans-61" x="130.126953"/>
     <use xlink:href="#DejaVuSans-72" x="191.40625"/>
     <use xlink:href="#DejaVuSans-20" x="232.519531"/>
     <use xlink:href="#DejaVuSans-53" x="264.306641"/>
     <use xlink:href="#DejaVuSans-74" x="327.783203"/>
     <use xlink:href="#DejaVuSans-65" x="366.992188"/>
     <use xlink:href="#DejaVuSans-61" x="428.515625"/>
     <use xlink:href="#DejaVuSans-6d" x="489.794922"/>
     <use xlink:href="#DejaVuSans-73" x="587.207031"/>
     <use xlink:href="#DejaVuSans-20" x="639.306641"/>
     <use xlink:href="#DejaVuSans-46" x="671.09375"/>
     <use xlink:href="#DejaVuSans-61" x="719.488281"/>
     <use xlink:href="#DejaVuSans-6c" x="780.767578"/>
     <use xlink:href="#DejaVuSans-73" x="808.550781"/>
     <use xlink:href="#DejaVuSans-65" x="860.650391"/>
    </g>
   </g>
   <g id="patch_9">
    <path d="M 201.507243 103.103386 
Q 201.507243 108.824196 201.507243 114.545007 
L 202.507243 114.545007 
Q 201.507243 116.544935 200.507243 118.544862 
Q 199.507243 116.544935 198.507243 114.545007 
L 199.507243 114.545007 
Q 199.507243 108.824196 199.507243 103.103386 
L 201.507243 103.103386 
z
" style="stroke: #000000; stroke-linecap: round"/>
   </g>
   <g id="text_20">
    <!-- Lehman Bankruptcy -->
    <g transform="translate(200.507243 99.026992) scale(0.1 -0.1)">
     <defs>
      <path id="DejaVuSans-4c" d="M 628 4666 
L 1259 4666 
L 1259 531 
L 3531 531 
L 3531 0 
L 628 0 
L 628 4666 
z
" transform="scale(0.015625)"/>
      <path id="DejaVuSans-68" d="M 3513 2113 
L 3513 0 
L 2938 0 
L 2938 2094 
Q 2938 2591 2744 2837 
Q 2550 3084 2163 3084 
Q 1697 3084 1428 2787 
Q 1159 2491 1159 1978 
L 1159 0 
L 581 0 
L 581 4863 
L 1159 4863 
L 1159 2956 
Q 1366 3272 1645 3428 
Q 1925 3584 2291 3584 
Q 2894 3584 3203 3211 
Q 3513 2838 3513 2113 
z
" transform="scale(0.015625)"/>
      <path id="DejaVuSans-70" d="M 1159 525 
L 1159 -1331 
L 581 -1331 
L 581 3500 
L 1159 3500 
L 1159 2969 
Q 1341 3281 1617 3432 
Q 1894 3584 2278 3584 
Q 2916 3584 3314 3078 
Q 3713 2572 3713 1747 
Q 3713 922 3314 415 
Q 2916 -91 2278 -91 
Q 1894 -91 1617 61 
Q 1341 213 1159 525 
z
M 3116 1747 
Q 3116 2381 2855 2742 
Q 2594 3103 2138 3103 
Q 1681 3103 1420 2742 
Q 1159 2381 1159 1747 
Q 1159 1113 1420 752 
Q 1681 391 2138 391 
Q 2594 391 2855 752 
Q 3116 1113 3116 1747 
z
" transform="scale(0.015625)"/>
      <path id="DejaVuSans-79" d="M 2059 -325 
Q 1816 -950 1584 -1140 
Q 1353 -1331 966 -1331 
L 506 -1331 
L 506 -850 
L 844 -850 
Q 1081 -850 1212 -737 
Q 1344 -625 1503 -206 
L 1606 56 
L 191 3500 
L 800 3500 
L 1894 763 
L 2988 3500 
L 3597 3500 
L 2059 -325 
z
" transform="scale(0.015625)"/>
     </defs>
     <use xlink:href="#DejaVuSans-4c"/>
     <use xlink:href="#DejaVuSans-65" x="53.962891"/>
     <use xlink:href="#DejaVuSans-68" x="115.486328"/>
     <use xlink:href="#DejaVuSans-6d" x="178.865234"/>
     <use xlink:href="#DejaVuSans-61" x="276.277344"/>
     <use xlink:href="#DejaVuSans-6e" x="337.556641"/>
     <use xlink:href="#DejaVuSans-20" x="400.935547"/>
     <use xlink:href="#DejaVuSans-42" x="432.722656"/>
     <use xlink:href="#DejaVuSans-61" x="501.326172"/>
     <use xlink:href="#DejaVuSans-6e" x="562.605469"/>
     <use xlink:href="#DejaVuSans-6b" x="625.984375"/>
     <use xlink:href="#DejaVuSans-72" x="683.894531"/>
     <use xlink:href="#DejaVuSans-75" x="725.007812"/>
     <use xlink:href="#DejaVuSans-70" x="788.386719"/>
     <use xlink:href="#DejaVuSans-74" x="851.863281"/>
     <use xlink:href="#DejaVuSans-63" x="891.072266"/>
     <use xlink:href="#DejaVuSans-79" x="946.052734"/>
    </g>
   </g>
   <g id="text_21">
    <!-- Important dates in 2008-2009 finacial crisis -->
    <g transform="translate(95.756227 16.318125) scale(0.12 -0.12)">
     <defs>
      <path id="DejaVuSans-49" d="M 628 4666 
L 1259 4666 
L 1259 0 
L 628 0 
L 628 4666 
z
" transform="scale(0.015625)"/>
     </defs>
     <use xlink:href="#DejaVuSans-49"/>
     <use xlink:href="#DejaVuSans-6d" x="29.492188"/>
     <use xlink:href="#DejaVuSans-70" x="126.904297"/>
     <use xlink:href="#DejaVuSans-6f" x="190.380859"/>
     <use xlink:href="#DejaVuSans-72" x="251.5625"/>
     <use xlink:href="#DejaVuSans-74" x="292.675781"/>
     <use xlink:href="#DejaVuSans-61" x="331.884766"/>
     <use xlink:href="#DejaVuSans-6e" x="393.164062"/>
     <use xlink:href="#DejaVuSans-74" x="456.542969"/>
     <use xlink:href="#DejaVuSans-20" x="495.751953"/>
     <use xlink:href="#DejaVuSans-64" x="527.539062"/>
     <use xlink:href="#DejaVuSans-61" x="591.015625"/>
     <use xlink:href="#DejaVuSans-74" x="652.294922"/>
     <use xlink:href="#DejaVuSans-65" x="691.503906"/>
     <use xlink:href="#DejaVuSans-73" x="753.027344"/>
     <use xlink:href="#DejaVuSans-20" x="805.126953"/>
     <use xlink:href="#DejaVuSans-69" x="836.914062"/>
     <use xlink:href="#DejaVuSans-6e" x="864.697266"/>
     <use xlink:href="#DejaVuSans-20" x="928.076172"/>
     <use xlink:href="#DejaVuSans-32" x="959.863281"/>
     <use xlink:href="#DejaVuSans-30" x="1023.486328"/>
     <use xlink:href="#DejaVuSans-30" x="1087.109375"/>
     <use xlink:href="#DejaVuSans-38" x="1150.732422"/>
     <use xlink:href="#DejaVuSans-2d" x="1214.355469"/>
     <use xlink:href="#DejaVuSans-32" x="1250.439453"/>
     <use xlink:href="#DejaVuSans-30" x="1314.0625"/>
     <use xlink:href="#DejaVuSans-30" x="1377.685547"/>
     <use xlink:href="#DejaVuSans-39" x="1441.308594"/>
     <use xlink:href="#DejaVuSans-20" x="1504.931641"/>
     <use xlink:href="#DejaVuSans-66" x="1536.71875"/>
     <use xlink:href="#DejaVuSans-69" x="1571.923828"/>
     <use xlink:href="#DejaVuSans-6e" x="1599.707031"/>
     <use xlink:href="#DejaVuSans-61" x="1663.085938"/>
     <use xlink:href="#DejaVuSans-63" x="1724.365234"/>
     <use xlink:href="#DejaVuSans-69" x="1779.345703"/>
     <use xlink:href="#DejaVuSans-61" x="1807.128906"/>
     <use xlink:href="#DejaVuSans-6c" x="1868.408203"/>
     <use xlink:href="#DejaVuSans-20" x="1896.191406"/>
     <use xlink:href="#DejaVuSans-63" x="1927.978516"/>
     <use xlink:href="#DejaVuSans-72" x="1982.958984"/>
     <use xlink:href="#DejaVuSans-69" x="2024.072266"/>
     <use xlink:href="#DejaVuSans-73" x="2051.855469"/>
     <use xlink:href="#DejaVuSans-69" x="2103.955078"/>
     <use xlink:href="#DejaVuSans-73" x="2131.738281"/>
    </g>
   </g>
  </g>
 </g>
 <defs>
  <clipPath id="pf707513241">
   <rect x="48.22404" y="22.318125" width="357.12" height="235.008"/>
  </clipPath>
 </defs>
</svg>
